HIERARCHY
ROOT Hips
{
  OFFSET 0 89.5177 0.535
  CHANNELS 6 Xposition Yposition Zposition Zrotation Xrotation Yrotation
  JOINT Spine
  {
    OFFSET 12.0259 -0.162855 1.69034e-005
    CHANNELS 3 Zrotation Xrotation Yrotation
    JOINT Spine1
    {
      OFFSET 15.3169 -0.0121922 0
      CHANNELS 3 Zrotation Xrotation Yrotation
      JOINT Spine2
      {
        OFFSET 15.3176 -0.0121908 0
        CHANNELS 3 Zrotation Xrotation Yrotation
        JOINT Neck
        {
          OFFSET 19.9142 1.56338 0
          CHANNELS 3 Zrotation Xrotation Yrotation
          JOINT Head
          {
            OFFSET 6.92651 0 0
            CHANNELS 3 Zrotation Xrotation Yrotation
            End Site
            {
              OFFSET 20.7666 0 0
            }
          }
          JOINT LeftShoulder
          {
            OFFSET -6.20654 0.708824 7.28219
            CHANNELS 3 Zrotation Xrotation Yrotation
            JOINT LeftArm
            {
              OFFSET 14.108 0 -1.52588e-005
              CHANNELS 3 Zrotation Xrotation Yrotation
              JOINT LeftForeArm
              {
                OFFSET 28.5802 0 0
                CHANNELS 3 Zrotation Xrotation Yrotation
                JOINT LeftHand
                {
                  OFFSET 27.092 0 0
                  CHANNELS 3 Zrotation Xrotation Yrotation
                  End Site
                  {
                    OFFSET 9.55928 -0.186424 0.145352
                  }
                }
              }
            }
          }
          JOINT RightShoulder
          {
            OFFSET -6.20654 0.708866 -7.28218
            CHANNELS 3 Zrotation Xrotation Yrotation
            JOINT RightArm
            {
              OFFSET 14.108 0 1.52588e-005
              CHANNELS 3 Zrotation Xrotation Yrotation
              JOINT RightForeArm
              {
                OFFSET 28.5802 0 0
                CHANNELS 3 Zrotation Xrotation Yrotation
                JOINT RightHand
                {
                  OFFSET 27.092 0 0
                  CHANNELS 3 Zrotation Xrotation Yrotation
                  End Site
                  {
                    OFFSET 9.55929 -0.186417 -0.145354
                  }
                }
              }
            }
          }
        }
      }
    }
  }
  JOINT LeftUpLeg
  {
    OFFSET 0.005 -0.535 8.837
    CHANNELS 3 Zrotation Xrotation Yrotation
    JOINT LeftLeg
    {
      OFFSET 39.9035 0 0
      CHANNELS 3 Zrotation Xrotation Yrotation
      JOINT LeftFoot
      {
        OFFSET 39.6689 0 0
        CHANNELS 3 Zrotation Xrotation Yrotation
        JOINT LeftToe
        {
          OFFSET 10.1624 13.6296 0
          CHANNELS 3 Zrotation Xrotation Yrotation
          End Site
          {
            OFFSET 8.38147 0 0
          }
        }
      }
    }
  }
  JOINT RightUpLeg
  {
    OFFSET 0.005 -0.535 -8.837
    CHANNELS 3 Zrotation Xrotation Yrotation
    JOINT RightLeg
    {
      OFFSET 39.9035 0 0
      CHANNELS 3 Zrotation Xrotation Yrotation
      JOINT RightFoot
      {
        OFFSET 39.6689 0 0
        CHANNELS 3 Zrotation Xrotation Yrotation
        JOINT RightToe
        {
          OFFSET 10.1624 13.6296 0
          CHANNELS 3 Zrotation Xrotation Yrotation
          End Site
          {
            OFFSET 8.38147 0 0
          }
        }
      }
    }
  }
}
MOTION
Frames:	6
Frame Time:	0.0333333
257.496 85.1231 -91.4233 100.322 -60.9165 5.58167 1.86402 -0.599572 0.610053 3.73462 -1.17847 1.23953 3.73462 -1.17847 1.23952 -8.3043e-012 -9.0191e-006 -5.27751e-005 -15.0171 42.4588 -9.45099 179.823 0.463392 -69.1358 33.184 -46.5687 59.2052 -19.1726 6.36111e-015 3.97569e-016 -66.92 -58.6746 -83.0484 179.705 -0.908131 71.9811 24.7105 20.3365 -63.888 -26.3614 3.97569e-016 -1.78906e-015 -46.1349 42.0897 51.0423 -38.6658 30.6594 -148.835 -3.51611 3.18055e-015 2.78299e-015 -3.80723 -6.3153 7.14253 90 0 -6.36111e-015 -23.8318 -34.7628 153.749 -34.212 -6.36111e-015 3.18056e-015 9.96665 2.7099 0.691656 90 -1.98785e-015 -0 
252.991 84.87 -91.0864 99.2366 -53.9943 5.53986 1.88113 -0.678112 -0.201522 3.76027 -1.36199 -0.380565 3.76027 -1.36199 -0.380575 -8.30748e-012 -9.0191e-006 -5.27751e-005 -19.3338 37.7874 -5.80827 179.509 1.32865 -69.725 28.7696 -45.1196 57.8267 -18.4416 6.36111e-015 7.95139e-016 -68.3312 -59.6871 -84.8276 179.818 -0.554347 71.8215 22.8298 16.0104 -64.755 -30.3322 -1.59028e-015 1.59028e-015 -46.0766 42.2415 50.4942 -44.1376 39.7121 -148.71 -5.9222 1.59028e-015 -4.47266e-016 -10.1745 -9.28641 10.1921 90 0 -3.97569e-016 -23.0423 -35.0886 149.316 -33.9162 -1.59028e-015 -6.75868e-015 6.74651 6.31246 -0.506472 90 -3.57812e-015 -0 
248.254 84.5307 -90.1632 99.6302 -46.2494 7.1682 1.78775 -0.891729 -1.02978 3.55986 -1.81454 -2.03146 3.55986 -1.81454 -2.03147 -8.30748e-012 -9.0191e-006 -5.27751e-005 -22.5384 33.3993 -3.68591 179.112 2.38894 -69.6054 21.9462 -41.3963 54.4566 -18.6473 -3.18055e-015 3.97569e-015 -70.6105 -60.8135 -87.979 179.891 -0.325808 71.4469 20.868 13.0539 -64.8147 -33.522 -3.18055e-015 -3.18055e-015 -46.1979 42.4065 50.097 -50.438 50.0201 -148.516 -7.58187 0 2.98177e-016 -13.2567 -8.01075 8.60551 90 -7.95139e-016 3.18055e-015 -22.5262 -32.55 145.395 -35.7067 2.78299e-015 -1.78906e-015 0.713728 12.0052 -2.05113 90 3.57812e-015 2.38542e-015 
244.348 84.4917 -88.7182 101.337 -37.4445 8.03104 1.61209 -1.2959 -1.43433 3.1925 -2.63078 -2.83259 3.1925 -2.63078 -2.8326 -8.3043e-012 -9.0191e-006 -5.27751e-005 -25.6228 29.4708 -2.15633 178.851 2.99045 -68.9683 15.8185 -37.6651 51.9454 -18.6217 -6.36111e-015 -1.59028e-015 -71.5771 -62.9309 -88.6913 -179.999 0.00184189 70.8516 19.1406 12.549 -64.905 -34.6776 0 -0 -46.0331 41.5997 48.9174 -52.4572 49.3855 -153.032 -15.235 3.18055e-015 -1.19271e-015 -5.07767 -1.56659 1.91967 90 1.59028e-015 3.18055e-015 -19.4527 -26.8475 147.348 -37.79 0 -3.18056e-015 -10.5959 21.2938 -6.71507 90 1.19271e-015 8.74653e-015 
241.124 85.2113 -87.6293 103.077 -29.4421 7.28079 1.66593 -1.35306 -1.53838 3.29635 -2.74933 -3.03791 3.29635 -2.74933 -3.03792 -8.30867e-012 -9.0191e-006 -5.27751e-005 -30.026 25.4514 -1.68623 178.477 3.93942 -68.8381 11.1205 -34.7457 51.308 -18.0482 3.18055e-015 -7.95139e-016 -70.5685 -64.2495 -87.6914 -179.954 0.129602 70.511 18.3627 14.1681 -66.0511 -33.5785 0 3.18055e-015 -45.8266 40.7535 47.9651 -49.1484 43.2635 -161.315 -17.8853 0 7.95139e-016 -3.27956 -1.87217 1.94559 90 7.95139e-016 -0 -13.0746 -18.5476 154.1 -38.5831 9.54167e-015 7.95139e-015 -19.3765 21.5411 -3.41717 90 -7.95139e-015 -0 
237.921 86.312 -86.8714 104.725 -24.5836 5.49489 1.67896 -0.818164 -1.40624 3.33787 -1.67646 -2.7882 3.33787 -1.67646 -2.78821 -8.30271e-012 -9.0191e-006 -5.27751e-005 -31.6189 22.4012 -3.31904 178.218 4.59674 -68.7825 8.81595 -32.0729 52.301 -17.239 1.59028e-015 -1.59028e-015 -67.0982 -64.3541 -83.7115 179.595 -1.20795 71.4401 17.2248 14.7005 -66.6788 -31.8796 0 -3.18055e-015 -45.2001 41.6883 48.3408 -47.218 39.7104 -165.132 -17.8781 0 1.59028e-015 -0.939087 -1.00526 0.98964 90 -2.38542e-015 3.18055e-015 -10.079 -11.1815 159.296 -40.2809 -6.36111e-015 -9.54167e-015 -22.3297 6.76578 9.27612 90 -3.18055e-015 3.18055e-015 
